<svg viewBox="0 0 40 48" xmlns="http://www.w3.org/2000/svg" width="160" height="192"><path d="M20 2 C9 2 2 10 2 20 C2 32 20 46 20 46 C20 46 38 32 38 20 C38 10 31 2 20 2 Z" fill="#70507e" stroke="#20383f" stroke-width="1.9"/><path d="M20 5.6 C11.6 5.6 6.4 11.8 6.4 19.7 C6.4 28.6 20 39.4 20 39.4 C20 39.4 33.6 28.6 33.6 19.7 C33.6 11.8 28.4 5.6 20 5.6 Z" fill="none" stroke="#f8efd2" stroke-width="1.5" opacity="0.92"/><path d="M12.3 27.4 H27.7" stroke="#f8efd2" stroke-width="2.1" stroke-linecap="round"/><path d="M15.2 22 A4.8 4.8 0 0 1 24.8 22" fill="none" stroke="#f8efd2" stroke-width="2.15" stroke-linecap="round"/><path d="M20 14.4 V17" stroke="#f8efd2" stroke-width="1.9" stroke-linecap="round"/><path d="M15.1 16.4 L16.8 17.5 M24.9 16.4 L23.2 17.5" stroke="#f8efd2" stroke-width="1.4" stroke-linecap="round" opacity="0.95"/></svg>