<svg viewBox="0 0 40 48" xmlns="http://www.w3.org/2000/svg" width="160" height="192"><path d="M20 2 C9 2 2 10 2 20 C2 32 20 46 20 46 C20 46 38 32 38 20 C38 10 31 2 20 2 Z" fill="#8a7444" stroke="#20383f" stroke-width="1.9"/><path d="M20 5.6 C11.6 5.6 6.4 11.8 6.4 19.7 C6.4 28.6 20 39.4 20 39.4 C20 39.4 33.6 28.6 33.6 19.7 C33.6 11.8 28.4 5.6 20 5.6 Z" fill="none" stroke="#f8efd2" stroke-width="1.5" opacity="0.92"/><path d="M20 14.3 L21.9 18.5 L26.5 19 L23.1 22 L24.1 26.4 L20 24 L15.9 26.4 L16.9 22 L13.5 19 L18.1 18.5 Z" fill="none" stroke="#f8efd2" stroke-width="2" stroke-linejoin="round"/><circle cx="20" cy="20.4" r="8.8" fill="none" stroke="#f8efd2" stroke-width="1.5" opacity="0.9"/></svg>