<svg viewBox="0 0 40 48" xmlns="http://www.w3.org/2000/svg" width="160" height="192"><path d="M20 2 C9 2 2 10 2 20 C2 32 20 46 20 46 C20 46 38 32 38 20 C38 10 31 2 20 2 Z" fill="#2a7d8c" stroke="#20383f" stroke-width="1.9"/><path d="M20 5.6 C11.6 5.6 6.4 11.8 6.4 19.7 C6.4 28.6 20 39.4 20 39.4 C20 39.4 33.6 28.6 33.6 19.7 C33.6 11.8 28.4 5.6 20 5.6 Z" fill="none" stroke="#f8efd2" stroke-width="1.5" opacity="0.92"/><path d="M10.2 19.5 C12.6 17.2 15 17.2 17.4 19.5 C19.8 21.8 22.2 21.8 24.6 19.5 C27 17.2 29.4 17.2 31.8 19.5" fill="none" stroke="#f8efd2" stroke-width="2.35" stroke-linecap="round"/><path d="M10.2 25.5 C12.6 23.2 15 23.2 17.4 25.5 C19.8 27.8 22.2 27.8 24.6 25.5 C27 23.2 29.4 23.2 31.8 25.5" fill="none" stroke="#f8efd2" stroke-width="2.35" stroke-linecap="round"/><path d="M15 14.8 C16.7 13.5 18.6 13.1 20.4 13.9" fill="none" stroke="#f8efd2" stroke-width="1.6" stroke-linecap="round" opacity="0.9"/></svg>