<svg viewBox="0 0 40 48" xmlns="http://www.w3.org/2000/svg" width="160" height="192"><path d="M20 2 C9 2 2 10 2 20 C2 32 20 46 20 46 C20 46 38 32 38 20 C38 10 31 2 20 2 Z" fill="#6f6959" stroke="#20383f" stroke-width="1.9"/><path d="M20 5.6 C11.6 5.6 6.4 11.8 6.4 19.7 C6.4 28.6 20 39.4 20 39.4 C20 39.4 33.6 28.6 33.6 19.7 C33.6 11.8 28.4 5.6 20 5.6 Z" fill="none" stroke="#f8efd2" stroke-width="1.5" opacity="0.92"/><circle cx="20" cy="16.2" r="2" fill="#f8efd2"/><path d="M20 20.4 V28.6" stroke="#f8efd2" stroke-width="2.55" stroke-linecap="round"/><path d="M14.2 13.1 H25.8" stroke="#f8efd2" stroke-width="1.35" stroke-linecap="round" opacity="0.85"/></svg>