<svg viewBox="0 0 40 48" xmlns="http://www.w3.org/2000/svg" width="160" height="192"><path d="M20 2 C9 2 2 10 2 20 C2 32 20 46 20 46 C20 46 38 32 38 20 C38 10 31 2 20 2 Z" fill="#506a2f" stroke="#20383f" stroke-width="1.9"/><path d="M20 5.6 C11.6 5.6 6.4 11.8 6.4 19.7 C6.4 28.6 20 39.4 20 39.4 C20 39.4 33.6 28.6 33.6 19.7 C33.6 11.8 28.4 5.6 20 5.6 Z" fill="none" stroke="#f8efd2" stroke-width="1.5" opacity="0.92"/><path d="M19.9 29.2 V16.3" stroke="#f8efd2" stroke-width="2.1" stroke-linecap="round"/><path d="M19.9 18.5 C16.4 17.1 13.4 18.5 12.2 22.5 C15.4 23 17.8 21.6 19.9 18.5" fill="none" stroke="#f8efd2" stroke-width="2" stroke-linecap="round" stroke-linejoin="round"/><path d="M20.1 21.2 C23.6 19.8 26.4 21.1 27.7 25 C24.6 25.5 22.2 24.1 20.1 21.2" fill="none" stroke="#f8efd2" stroke-width="2" stroke-linecap="round" stroke-linejoin="round"/><path d="M14 29.4 H26" stroke="#f8efd2" stroke-width="1.7" stroke-linecap="round" opacity="0.95"/></svg>