<svg viewBox="0 0 40 48" xmlns="http://www.w3.org/2000/svg" width="160" height="192"><path d="M20 1.6 C8.5 1.6 1.6 10.1 1.6 20.2 C1.6 32.5 20 46.8 20 46.8 C20 46.8 38.4 32.5 38.4 20.2 C38.4 10.1 31.5 1.6 20 1.6 Z" fill="#f8efd2" opacity="0.98"/><path d="M20 3.8 C9.9 3.8 3.5 11.1 3.5 20 C3.5 30.8 20 43.8 20 43.8 C20 43.8 36.5 30.8 36.5 20 C36.5 11.1 30.1 3.8 20 3.8 Z" fill="#b44b3f" stroke="#20383f" stroke-width="2.4"/><path d="M20 6.4 C11.5 6.4 6.3 12.5 6.3 19.9 C6.3 28.8 20 39.8 20 39.8 C20 39.8 33.7 28.8 33.7 19.9 C33.7 12.5 28.5 6.4 20 6.4 Z" fill="none" stroke="#f8efd2" stroke-width="1.7" opacity="0.95"/><path d="M11.8 22.3 L20 15.2 L28.2 22.3" fill="none" stroke="#f8efd2" stroke-width="2.8" stroke-linecap="round" stroke-linejoin="round"/><path d="M13.8 21.6 V29.4 H26.2 V21.6" fill="none" stroke="#f8efd2" stroke-width="2.8" stroke-linecap="round" stroke-linejoin="round"/><path d="M18.5 29.4 V24.6 H21.5 V29.4" fill="none" stroke="#f8efd2" stroke-width="2.3" stroke-linecap="round" stroke-linejoin="round"/><path d="M14.4 14.9 H25.6" stroke="#f8efd2" stroke-width="1.6" stroke-linecap="round" opacity="0.9"/></svg>